<svg width="50" height="50" viewBox="0 0 50 50" fill="none" xmlns="http://www.w3.org/2000/svg">
<rect x="12.5" y="6.25" width="25" height="37.5" rx="3" stroke="black" stroke-width="1.5" stroke-linecap="round" stroke-linejoin="round"/>
<path d="M25 38.5416C24.7218 38.5416 24.4602 38.4332 24.2635 38.2365C24.0667 38.0397 23.9583 37.7782 23.9583 37.4999C23.9583 37.2932 24.019 37.0931 24.1339 36.9213C24.2488 36.7493 24.4104 36.6167 24.6013 36.5376C24.7284 36.4849 24.8625 36.4583 25 36.4583C25.0681 36.4583 25.1365 36.465 25.2032 36.4783C25.406 36.5186 25.5904 36.6172 25.7366 36.7634C25.8827 36.9095 25.9813 37.094 26.0217 37.2967C26.062 37.4995 26.0415 37.7076 25.9624 37.8986C25.8833 38.0895 25.7506 38.2512 25.5787 38.366C25.4068 38.4809 25.2067 38.5416 25 38.5416Z" fill="black"/>
<path d="M25 39.5834C24.4475 39.5834 23.9176 39.3639 23.5269 38.9732C23.1362 38.5825 22.9167 38.0526 22.9167 37.5001C22.9167 37.088 23.0389 36.6852 23.2678 36.3427C23.4967 36.0001 23.8221 35.733 24.2028 35.5753C24.5834 35.4177 25.0023 35.3764 25.4065 35.4568C25.8106 35.5372 26.1818 35.7356 26.4732 36.0269C26.7645 36.3183 26.9629 36.6895 27.0433 37.0937C27.1237 37.4978 27.0824 37.9167 26.9248 38.2973C26.7671 38.678 26.5 39.0034 26.1574 39.2323C25.8149 39.4612 25.4121 39.5834 25 39.5834Z" fill="black"/>
</svg>
