<svg width="50" height="50" viewBox="0 0 50 50" fill="none" xmlns="http://www.w3.org/2000/svg">
<path fill-rule="evenodd" clip-rule="evenodd" d="M25.5355 23.8229L22.3772 17.8396L19.2167 23.8229C18.9931 24.2605 18.6699 24.6394 18.273 24.9292C17.8737 25.2204 17.4123 25.4151 16.9251 25.4979L10.4167 26.7688L14.9605 32.1854C15.267 32.5198 15.4979 32.9163 15.6376 33.3479C15.7761 33.7786 15.8195 34.2343 15.7647 34.6833L14.9001 41.6667L20.8938 38.7792C21.357 38.558 21.8639 38.4434 22.3772 38.4438C22.8591 38.4434 23.3342 38.5584 23.7626 38.7792L29.8917 41.4875L29.0251 34.5834C28.9703 34.1343 29.0136 33.6786 29.1522 33.2479C29.2918 32.8163 29.5227 32.4198 29.8292 32.0854L34.3355 26.7604L27.8272 25.4896C27.3399 25.4068 26.8785 25.2121 26.4792 24.9208C26.0834 24.6335 25.7602 24.2575 25.5355 23.8229Z" stroke="black" stroke-width="1.5" stroke-linecap="round" stroke-linejoin="round"/>
<path d="M38.9043 10.0687C39.1978 9.7764 39.1987 9.30152 38.9063 9.00808C38.614 8.71464 38.1391 8.71375 37.8457 9.0061L38.375 9.53742L38.9043 10.0687ZM30.5977 16.2269C30.3043 16.5193 30.3034 16.9941 30.5958 17.2876C30.8881 17.581 31.363 17.5819 31.6564 17.2896L31.1271 16.7583L30.5977 16.2269ZM40.1125 16.0856C40.406 15.7933 40.4071 15.3184 40.1148 15.0249C39.8225 14.7314 39.3477 14.7304 39.0542 15.0226L39.5833 15.5541L40.1125 16.0856ZM34.2208 19.8351C33.9273 20.1274 33.9263 20.6022 34.2185 20.8958C34.5108 21.1893 34.9857 21.1903 35.2792 20.8981L34.75 20.3666L34.2208 19.8351ZM32.8646 8.86473C33.1581 8.57247 33.1592 8.09759 32.8669 7.80407C32.5746 7.51054 32.0998 7.50952 31.8062 7.80178L32.3354 8.33325L32.8646 8.86473ZM26.9708 12.6164C26.6773 12.9086 26.6763 13.3835 26.9685 13.677C27.2608 13.9705 27.7357 13.9716 28.0292 13.6793L27.5 13.1478L26.9708 12.6164ZM38.375 9.53742L37.8457 9.0061L30.5977 16.2269L31.1271 16.7583L31.6564 17.2896L38.9043 10.0687L38.375 9.53742ZM39.5833 15.5541L39.0542 15.0226L34.2208 19.8351L34.75 20.3666L35.2792 20.8981L40.1125 16.0856L39.5833 15.5541ZM32.3354 8.33325L31.8062 7.80178L26.9708 12.6164L27.5 13.1478L28.0292 13.6793L32.8646 8.86473L32.3354 8.33325Z" fill="black"/>
</svg>
