<svg width="50" height="50" viewBox="0 0 50 50" fill="none" xmlns="http://www.w3.org/2000/svg">
<path fill-rule="evenodd" clip-rule="evenodd" d="M31.0917 19.8687H18.9126C15.2785 19.9663 12.41 22.9886 12.5022 26.6228V34.8249C12.41 38.4591 15.2785 41.4814 18.9126 41.5791H31.0917C34.7258 41.4814 37.5943 38.4591 37.5022 34.8249V26.6228C37.5943 22.9886 34.7258 19.9663 31.0917 19.8687V19.8687Z" stroke="black" stroke-width="1.5" stroke-linecap="round" stroke-linejoin="round"/>
<path d="M18.0021 19.8688C18.0021 20.283 18.3379 20.6188 18.7521 20.6188C19.1663 20.6188 19.5021 20.283 19.5021 19.8688H18.7521H18.0021ZM18.7521 10.1271L19.5021 10.1271L19.5021 10.1242L18.7521 10.1271ZM22.5979 6.25L22.5979 5.49999L22.5947 5.50001L22.5979 6.25ZM27.4063 6.25L27.4095 5.5H27.4063V6.25ZM31.2521 10.1271L30.5021 10.1242V10.1271H31.2521ZM30.5021 19.8708C30.5021 20.285 30.8379 20.6208 31.2521 20.6208C31.6663 20.6208 32.0021 20.285 32.0021 19.8708H31.2521H30.5021ZM30.5021 43.75C30.5021 44.1642 30.8379 44.5 31.2521 44.5C31.6663 44.5 32.0021 44.1642 32.0021 43.75H31.2521H30.5021ZM32.0021 41.5792C32.0021 41.165 31.6663 40.8292 31.2521 40.8292C30.8379 40.8292 30.5021 41.165 30.5021 41.5792H31.2521H32.0021ZM18.0021 43.75C18.0021 44.1642 18.3379 44.5 18.7521 44.5C19.1663 44.5 19.5021 44.1642 19.5021 43.75H18.7521H18.0021ZM19.5021 41.5792C19.5021 41.165 19.1663 40.8292 18.7521 40.8292C18.3379 40.8292 18.0021 41.165 18.0021 41.5792H18.7521H19.5021ZM20.8354 26.7167C20.4212 26.7167 20.0854 27.0525 20.0854 27.4667C20.0854 27.8809 20.4212 28.2167 20.8354 28.2167V27.4667V26.7167ZM29.1688 28.2167C29.583 28.2167 29.9188 27.8809 29.9188 27.4667C29.9188 27.0525 29.583 26.7167 29.1688 26.7167V27.4667V28.2167ZM20.8354 33.2312C20.4212 33.2312 20.0854 33.567 20.0854 33.9812C20.0854 34.3955 20.4212 34.7312 20.8354 34.7312V33.9812V33.2312ZM29.1688 34.7312C29.583 34.7312 29.9188 34.3955 29.9188 33.9812C29.9188 33.567 29.583 33.2312 29.1688 33.2312V33.9812V34.7312ZM18.7521 19.8688H19.5021V10.1271H18.7521H18.0021V19.8688H18.7521ZM18.7521 10.1271L19.5021 10.1242C19.4956 8.40591 20.8828 7.0074 22.6012 6.99999L22.5979 6.25L22.5947 5.50001C20.0483 5.51098 17.9925 7.58347 18.0021 10.1299L18.7521 10.1271ZM22.5979 6.25V7H27.4063V6.25V5.5H22.5979V6.25ZM27.4063 6.25L27.403 6.99999C29.1214 7.0074 30.5086 8.40591 30.5021 10.1242L31.2521 10.1271L32.0021 10.1299C32.0117 7.58347 29.9559 5.51098 27.4095 5.50001L27.4063 6.25ZM31.2521 10.1271H30.5021V19.8708H31.2521H32.0021V10.1271H31.2521ZM31.2521 43.75H32.0021V41.5792H31.2521H30.5021V43.75H31.2521ZM18.7521 43.75H19.5021V41.5792H18.7521H18.0021V43.75H18.7521ZM20.8354 27.4667V28.2167H29.1688V27.4667V26.7167H20.8354V27.4667ZM20.8354 33.9812V34.7312H29.1688V33.9812V33.2312H20.8354V33.9812Z" fill="black"/>
</svg>
