<svg width="28" height="28" viewBox="0 0 28 28" fill="none" xmlns="http://www.w3.org/2000/svg">
<path fill-rule="evenodd" clip-rule="evenodd" d="M6.30715 9.58292C7.20432 7.36392 8.28349 5.83325 10.7265 5.83325H17.275C19.7157 5.83325 20.796 7.36392 21.6943 9.58292L22.5915 11.9571C23.26 11.9651 23.8741 12.327 24.205 12.9079C24.3997 13.2388 24.5016 13.616 24.5002 13.9999V17.0612C24.5088 17.7761 24.148 18.4447 23.5458 18.8299C23.2595 19.0083 22.9289 19.1028 22.5915 19.1029H5.40882C5.07145 19.1028 4.74086 19.0083 4.45449 18.8299C3.85228 18.4447 3.49147 17.7761 3.50015 17.0612V13.9999C3.49889 13.6164 3.60085 13.2396 3.79532 12.9091C4.12623 12.3282 4.74033 11.9663 5.40882 11.9583L6.30715 9.58292Z" stroke="white" stroke-width="1.5" stroke-linecap="round" stroke-linejoin="round"/>
<path d="M8.0686 19.1043C8.0686 18.6901 7.73281 18.3543 7.3186 18.3543C6.90438 18.3543 6.5686 18.6901 6.5686 19.1043H7.3186H8.0686ZM7.3186 20.6361H6.5686C6.5686 20.6441 6.56872 20.6521 6.56898 20.6601L7.3186 20.6361ZM5.88593 22.1668L5.8598 22.9163C5.87702 22.9169 5.89426 22.9169 5.91149 22.9163L5.88593 22.1668ZM4.45443 20.6349L5.20402 20.6596C5.20429 20.6514 5.20443 20.6432 5.20443 20.6349L4.45443 20.6349ZM5.20443 18.8301C5.20443 18.4159 4.86864 18.0801 4.45443 18.0801C4.04022 18.0801 3.70443 18.4159 3.70443 18.8301H4.45443H5.20443ZM5.40876 11.2073C4.99455 11.2073 4.65876 11.5431 4.65876 11.9573C4.65876 12.3715 4.99455 12.7073 5.40876 12.7073V11.9573V11.2073ZM22.5914 12.7073C23.0056 12.7073 23.3414 12.3715 23.3414 11.9573C23.3414 11.5431 23.0056 11.2073 22.5914 11.2073V11.9573V12.7073ZM21.4328 19.1031C21.4328 18.6889 21.097 18.3531 20.6828 18.3531C20.2685 18.3531 19.9328 18.6889 19.9328 19.1031H20.6828H21.4328ZM20.6828 20.6349L21.4312 20.6827C21.4323 20.6668 21.4328 20.6509 21.4328 20.6349H20.6828ZM21.3711 21.9536L21.7598 21.3122L21.7598 21.3122L21.3711 21.9536ZM22.8586 21.9536L22.4699 21.3122L22.4699 21.3122L22.8586 21.9536ZM23.5469 20.6349H22.7969C22.7969 20.6509 22.7974 20.6668 22.7985 20.6827L23.5469 20.6349ZM24.2969 18.8301C24.2969 18.4159 23.9611 18.0801 23.5469 18.0801C23.1327 18.0801 22.7969 18.4159 22.7969 18.8301H23.5469H24.2969ZM7.0001 15.0001C6.58588 15.0001 6.2501 15.3359 6.2501 15.7501C6.2501 16.1643 6.58588 16.5001 7.0001 16.5001V15.7501V15.0001ZM8.16676 16.5001C8.58098 16.5001 8.91676 16.1643 8.91676 15.7501C8.91676 15.3359 8.58098 15.0001 8.16676 15.0001V15.7501V16.5001ZM19.8334 15.0001C19.4192 15.0001 19.0834 15.3359 19.0834 15.7501C19.0834 16.1643 19.4192 16.5001 19.8334 16.5001V15.7501V15.0001ZM21.0001 16.5001C21.4143 16.5001 21.7501 16.1643 21.7501 15.7501C21.7501 15.3359 21.4143 15.0001 21.0001 15.0001V15.7501V16.5001ZM7.3186 19.1043H6.5686V20.6361H7.3186H8.0686V19.1043H7.3186ZM7.3186 20.6361L6.56898 20.6601C6.58194 21.0647 6.26492 21.4034 5.86037 21.4172L5.88593 22.1668L5.91149 22.9163C7.14279 22.8744 8.10767 21.8435 8.06821 20.6121L7.3186 20.6361ZM5.88593 22.1668L5.91206 21.4172C5.5075 21.4031 5.19073 21.0642 5.20402 20.6596L4.45443 20.6349L3.70483 20.6103C3.66437 21.8417 4.62849 22.8734 5.8598 22.9163L5.88593 22.1668ZM4.45443 20.6349H5.20443V18.8301H4.45443H3.70443V20.6349H4.45443ZM5.40876 11.9573V12.7073H22.5914V11.9573V11.2073H5.40876V11.9573ZM20.6828 19.1031H19.9328V20.6349H20.6828H21.4328V19.1031H20.6828ZM20.6828 20.6349L19.9343 20.5871C19.8824 21.3994 20.2863 22.1732 20.9824 22.595L21.3711 21.9536L21.7598 21.3122C21.5416 21.18 21.415 20.9374 21.4312 20.6827L20.6828 20.6349ZM21.3711 21.9536L20.9824 22.595C21.6784 23.0168 22.5513 23.0168 23.2473 22.595L22.8586 21.9536L22.4699 21.3122C22.2517 21.4444 21.978 21.4444 21.7598 21.3122L21.3711 21.9536ZM22.8586 21.9536L23.2473 22.595C23.9434 22.1732 24.3473 21.3994 24.2954 20.5871L23.5469 20.6349L22.7985 20.6827C22.8147 20.9374 22.6881 21.18 22.4699 21.3122L22.8586 21.9536ZM23.5469 20.6349H24.2969V18.8301H23.5469H22.7969V20.6349H23.5469ZM7.0001 15.7501V16.5001H8.16676V15.7501V15.0001H7.0001V15.7501ZM19.8334 15.7501V16.5001H21.0001V15.7501V15.0001H19.8334V15.7501Z" fill="white"/>
</svg>
