<svg width="16" height="16" viewBox="0 0 16 16" fill="none" xmlns="http://www.w3.org/2000/svg">
<path fill-rule="evenodd" clip-rule="evenodd" d="M9.06409 14.6001L7.05409 8.46509C6.96371 8.06995 7.08284 7.65609 7.36946 7.36946C7.65609 7.08284 8.06995 6.96371 8.46509 7.05409L14.6001 9.06409C14.8201 9.09722 14.99 9.27471 15.0136 9.49597C15.0371 9.71723 14.9082 9.92646 14.7001 10.0051L11.8161 11.3171C11.59 11.4164 11.4094 11.597 11.3101 11.8231L10.0001 14.7071C9.92146 14.9152 9.71223 15.0441 9.49097 15.0206C9.26971 14.997 9.09222 14.8271 9.05909 14.6071L9.06409 14.6001Z" stroke="white" stroke-width="1.5" stroke-linecap="round" stroke-linejoin="round"/>
<path d="M2.552 7.957C2.96621 7.957 3.302 7.62121 3.302 7.207C3.302 6.79279 2.96621 6.457 2.552 6.457V7.207V7.957ZM1 6.457C0.585786 6.457 0.25 6.79279 0.25 7.207C0.25 7.62121 0.585786 7.957 1 7.957V7.207V6.457ZM7.958 1C7.958 0.585786 7.62221 0.25 7.208 0.25C6.79379 0.25 6.458 0.585786 6.458 1H7.208H7.958ZM6.458 2.552C6.458 2.96621 6.79379 3.302 7.208 3.302C7.62221 3.302 7.958 2.96621 7.958 2.552H7.208H6.458ZM12.1273 3.34833C12.4202 3.05544 12.4202 2.58056 12.1273 2.28767C11.8344 1.99478 11.3596 1.99478 11.0667 2.28767L11.597 2.818L12.1273 3.34833ZM9.96667 3.38767C9.67378 3.68056 9.67378 4.15544 9.96667 4.44833C10.2596 4.74122 10.7344 4.74122 11.0273 4.44833L10.497 3.918L9.96667 3.38767ZM4.44533 11.0303C4.73822 10.7374 4.73822 10.2626 4.44533 9.96967C4.15244 9.67678 3.67756 9.67678 3.38467 9.96967L3.915 10.5L4.44533 11.0303ZM2.28467 11.0697C1.99178 11.3626 1.99178 11.8374 2.28467 12.1303C2.57756 12.4232 3.05244 12.4232 3.34533 12.1303L2.815 11.6L2.28467 11.0697ZM3.34533 2.29067C3.05244 1.99778 2.57756 1.99778 2.28467 2.29067C1.99178 2.58356 1.99178 3.05844 2.28467 3.35133L2.815 2.821L3.34533 2.29067ZM3.38467 4.45133C3.67756 4.74422 4.15244 4.74422 4.44533 4.45133C4.73822 4.15844 4.73822 3.68356 4.44533 3.39067L3.915 3.921L3.38467 4.45133ZM2.552 7.207V6.457H1V7.207V7.957H2.552V7.207ZM7.208 1H6.458V2.552H7.208H7.958V1H7.208ZM11.597 2.818L11.0667 2.28767L9.96667 3.38767L10.497 3.918L11.0273 4.44833L12.1273 3.34833L11.597 2.818ZM3.915 10.5L3.38467 9.96967L2.28467 11.0697L2.815 11.6L3.34533 12.1303L4.44533 11.0303L3.915 10.5ZM2.815 2.821L2.28467 3.35133L3.38467 4.45133L3.915 3.921L4.44533 3.39067L3.34533 2.29067L2.815 2.821Z" fill="white"/>
</svg>
