<svg width="28" height="28" viewBox="0 0 28 28" fill="none" xmlns="http://www.w3.org/2000/svg">
<path fill-rule="evenodd" clip-rule="evenodd" d="M18.6668 10.4999C18.6668 13.0772 16.5775 15.1666 14.0002 15.1666C11.4228 15.1666 9.3335 13.0772 9.3335 10.4999C9.3335 7.92259 11.4228 5.83325 14.0002 5.83325C15.2378 5.83325 16.4248 6.32492 17.3 7.20009C18.1752 8.07526 18.6668 9.26224 18.6668 10.4999Z" stroke="white" stroke-width="1.5" stroke-linecap="round" stroke-linejoin="round"/>
<path d="M14.75 15.1666C14.75 14.7524 14.4142 14.4166 14 14.4166C13.5858 14.4166 13.25 14.7524 13.25 15.1666H14H14.75ZM13.25 22.1666C13.25 22.5808 13.5858 22.9166 14 22.9166C14.4142 22.9166 14.75 22.5808 14.75 22.1666H14H13.25ZM13.9205 7.90268C13.5086 7.94661 13.2103 8.31611 13.2542 8.72799C13.2982 9.13986 13.6677 9.43815 14.0795 9.39422L14 8.64845L13.9205 7.90268ZM15.6091 10.2937C15.771 10.6749 16.2112 10.8528 16.5925 10.691C16.9738 10.5292 17.1517 10.0889 16.9899 9.70758L16.2995 10.0006L15.6091 10.2937ZM14 15.1666H13.25V22.1666H14H14.75V15.1666H14ZM14 8.64845L14.0795 9.39422C14.7318 9.32465 15.3528 9.68983 15.6091 10.2937L16.2995 10.0006L16.9899 9.70758C16.4756 8.49589 15.2294 7.76308 13.9205 7.90268L14 8.64845Z" fill="white"/>
</svg>
