<svg width="50" height="50" viewBox="0 0 50 50" fill="none" xmlns="http://www.w3.org/2000/svg">
<path d="M29.676 13.0879C30.0008 12.8308 30.0556 12.3591 29.7985 12.0344C29.5414 11.7096 29.0697 11.6548 28.745 11.9119L29.2105 12.4999L29.676 13.0879ZM24.5345 15.2452C24.2098 15.5023 24.1549 15.974 24.4121 16.2988C24.6692 16.6235 25.1409 16.6784 25.4656 16.4213L25.0001 15.8333L24.5345 15.2452ZM24.5345 16.4213C24.8593 16.6784 25.331 16.6235 25.5881 16.2988C25.8452 15.974 25.7904 15.5023 25.4656 15.2452L25.0001 15.8333L24.5345 16.4213ZM21.2552 11.9119C20.9304 11.6548 20.4587 11.7096 20.2016 12.0344C19.9445 12.3591 19.9994 12.8308 20.3241 13.0879L20.7897 12.4999L21.2552 11.9119ZM24.2501 15.8333C24.2501 16.2475 24.5859 16.5833 25.0001 16.5833C25.4143 16.5833 25.7501 16.2475 25.7501 15.8333H25.0001H24.2501ZM25.7501 8.33325C25.7501 7.91904 25.4143 7.58325 25.0001 7.58325C24.5859 7.58325 24.2501 7.91904 24.2501 8.33325H25.0001H25.7501ZM25.7501 15.8333C25.7501 15.419 25.4143 15.0833 25.0001 15.0833C24.5859 15.0833 24.2501 15.419 24.2501 15.8333H25.0001H25.7501ZM24.2501 34.1666C24.2501 34.5808 24.5859 34.9166 25.0001 34.9166C25.4143 34.9166 25.7501 34.5808 25.7501 34.1666H25.0001H24.2501ZM20.3241 36.9119C19.9994 37.169 19.9445 37.6407 20.2016 37.9655C20.4587 38.2902 20.9304 38.3451 21.2552 38.0879L20.7897 37.4999L20.3241 36.9119ZM25.4656 34.7546C25.7904 34.4975 25.8452 34.0258 25.5881 33.701C25.331 33.3763 24.8593 33.3214 24.5345 33.5786L25.0001 34.1666L25.4656 34.7546ZM25.4656 33.5786C25.1409 33.3214 24.6692 33.3763 24.4121 33.701C24.1549 34.0258 24.2098 34.4975 24.5345 34.7546L25.0001 34.1666L25.4656 33.5786ZM28.745 38.0879C29.0697 38.3451 29.5414 38.2902 29.7985 37.9655C30.0556 37.6407 30.0008 37.169 29.676 36.9119L29.2105 37.4999L28.745 38.0879ZM25.7501 34.1666C25.7501 33.7524 25.4143 33.4166 25.0001 33.4166C24.5859 33.4166 24.2501 33.7524 24.2501 34.1666H25.0001H25.7501ZM24.2501 41.6666C24.2501 42.0808 24.5859 42.4166 25.0001 42.4166C25.4143 42.4166 25.7501 42.0808 25.7501 41.6666H25.0001H24.2501ZM12.2289 26.9421C11.8426 26.7927 11.4083 26.9847 11.2589 27.3711C11.1095 27.7574 11.3016 28.1917 11.6879 28.3411L11.9584 27.6416L12.2289 26.9421ZM16.7087 30.2828C17.0951 30.4322 17.5294 30.2401 17.6788 29.8538C17.8282 29.4674 17.6361 29.0331 17.2498 28.8837L16.9792 29.5833L16.7087 30.2828ZM17.7205 29.6974C17.7836 29.288 17.5028 28.905 17.0934 28.842C16.684 28.7789 16.301 29.0597 16.238 29.4691L16.9792 29.5833L17.7205 29.6974ZM15.4255 34.7441C15.3624 35.1535 15.6432 35.5365 16.0526 35.5995C16.462 35.6626 16.8449 35.3818 16.908 34.9724L16.1667 34.8583L15.4255 34.7441ZM17.3514 30.2344C17.711 30.0289 17.8359 29.5708 17.6304 29.2111C17.4249 28.8515 16.9668 28.7266 16.6071 28.9321L16.9792 29.5833L17.3514 30.2344ZM10.0446 32.6821C9.68501 32.8876 9.56006 33.3457 9.76557 33.7054C9.97107 34.065 10.4292 34.1899 10.7889 33.9844L10.4167 33.3333L10.0446 32.6821ZM16.6071 28.9321C16.2475 29.1376 16.1226 29.5957 16.3281 29.9554C16.5336 30.315 16.9917 30.4399 17.3514 30.2344L16.9792 29.5833L16.6071 28.9321ZM33.393 21.0678C33.7527 20.8623 33.8776 20.4041 33.6721 20.0445C33.4666 19.6848 33.0084 19.5599 32.6488 19.7654L33.0209 20.4166L33.393 21.0678ZM37.7712 23.0578C38.1576 23.2072 38.5919 23.0151 38.7413 22.6288C38.8907 22.2424 38.6986 21.8081 38.3123 21.6587L38.0418 22.3583L37.7712 23.0578ZM33.2914 19.7171C32.9051 19.5677 32.4708 19.7597 32.3214 20.1461C32.172 20.5324 32.3641 20.9667 32.7504 21.1161L33.0209 20.4166L33.2914 19.7171ZM32.2797 20.3024C32.2166 20.7118 32.4974 21.0948 32.9067 21.1578C33.3161 21.2209 33.6991 20.9401 33.7622 20.5308L33.0209 20.4166L32.2797 20.3024ZM34.5747 15.2558C34.6377 14.8464 34.357 14.4634 33.9476 14.4003C33.5382 14.3373 33.1552 14.618 33.0922 15.0274L33.8334 15.1416L34.5747 15.2558ZM32.6488 19.7654C32.2892 19.9709 32.1642 20.4291 32.3697 20.7887C32.5752 21.1483 33.0334 21.2733 33.393 21.0678L33.0209 20.4166L32.6488 19.7654ZM39.9555 17.3178C40.3152 17.1123 40.4401 16.6541 40.2346 16.2945C40.0291 15.9348 39.571 15.8099 39.2113 16.0154L39.5834 16.6666L39.9555 17.3178ZM11.6879 21.6587C11.3016 21.8081 11.1095 22.2424 11.2589 22.6288C11.4083 23.0151 11.8426 23.2072 12.2289 23.0578L11.9584 22.3583L11.6879 21.6587ZM17.2498 21.1161C17.6361 20.9667 17.8282 20.5324 17.6788 20.1461C17.5294 19.7597 17.0951 19.5677 16.7087 19.7171L16.9792 20.4166L17.2498 21.1161ZM16.238 20.5308C16.301 20.9401 16.684 21.2209 17.0934 21.1578C17.5028 21.0948 17.7836 20.7118 17.7205 20.3024L16.9792 20.4166L16.238 20.5308ZM16.908 15.0274C16.8449 14.618 16.462 14.3373 16.0526 14.4003C15.6432 14.4634 15.3624 14.8464 15.4255 15.2558L16.1667 15.1416L16.908 15.0274ZM16.6071 21.0678C16.9668 21.2733 17.4249 21.1483 17.6304 20.7887C17.8359 20.4291 17.711 19.9709 17.3514 19.7654L16.9792 20.4166L16.6071 21.0678ZM10.7889 16.0154C10.4292 15.8099 9.97107 15.9348 9.76557 16.2945C9.56006 16.6541 9.68501 17.1123 10.0446 17.3178L10.4167 16.6666L10.7889 16.0154ZM17.3514 19.7654C16.9917 19.5599 16.5336 19.6848 16.3281 20.0445C16.1226 20.4041 16.2475 20.8623 16.6071 21.0678L16.9792 20.4166L17.3514 19.7654ZM32.6488 30.2344C33.0084 30.4399 33.4666 30.315 33.6721 29.9554C33.8776 29.5957 33.7527 29.1376 33.393 28.9321L33.0209 29.5833L32.6488 30.2344ZM38.3123 28.3411C38.6986 28.1917 38.8907 27.7574 38.7413 27.3711C38.5919 26.9847 38.1576 26.7927 37.7712 26.9421L38.0418 27.6416L38.3123 28.3411ZM32.7504 28.8837C32.3641 29.0331 32.172 29.4674 32.3214 29.8538C32.4708 30.2401 32.9051 30.4322 33.2914 30.2828L33.0209 29.5833L32.7504 28.8837ZM33.7622 29.4691C33.6991 29.0597 33.3161 28.7789 32.9067 28.842C32.4974 28.905 32.2166 29.288 32.2797 29.6974L33.0209 29.5833L33.7622 29.4691ZM33.0922 34.9724C33.1552 35.3818 33.5382 35.6626 33.9476 35.5995C34.357 35.5365 34.6377 35.1535 34.5747 34.7441L33.8334 34.8583L33.0922 34.9724ZM33.393 28.9321C33.0334 28.7266 32.5752 28.8515 32.3697 29.2111C32.1642 29.5708 32.2892 30.0289 32.6488 30.2344L33.0209 29.5833L33.393 28.9321ZM39.2113 33.9844C39.571 34.1899 40.0291 34.065 40.2346 33.7054C40.4401 33.3457 40.3152 32.8876 39.9555 32.6821L39.5834 33.3333L39.2113 33.9844ZM29.2105 12.4999L28.745 11.9119L24.5345 15.2452L25.0001 15.8333L25.4656 16.4213L29.676 13.0879L29.2105 12.4999ZM25.0001 15.8333L25.4656 15.2452L21.2552 11.9119L20.7897 12.4999L20.3241 13.0879L24.5345 16.4213L25.0001 15.8333ZM25.0001 15.8333H25.7501V8.33325H25.0001H24.2501V15.8333H25.0001ZM25.0001 15.8333H24.2501V34.1666H25.0001H25.7501V15.8333H25.0001ZM20.7897 37.4999L21.2552 38.0879L25.4656 34.7546L25.0001 34.1666L24.5345 33.5786L20.3241 36.9119L20.7897 37.4999ZM25.0001 34.1666L24.5345 34.7546L28.745 38.0879L29.2105 37.4999L29.676 36.9119L25.4656 33.5786L25.0001 34.1666ZM25.0001 34.1666H24.2501V41.6666H25.0001H25.7501V34.1666H25.0001ZM11.9584 27.6416L11.6879 28.3411L16.7087 30.2828L16.9792 29.5833L17.2498 28.8837L12.2289 26.9421L11.9584 27.6416ZM16.9792 29.5833L16.238 29.4691L15.4255 34.7441L16.1667 34.8583L16.908 34.9724L17.7205 29.6974L16.9792 29.5833ZM16.9792 29.5833L16.6071 28.9321L10.0446 32.6821L10.4167 33.3333L10.7889 33.9844L17.3514 30.2344L16.9792 29.5833ZM16.9792 29.5833L17.3514 30.2344L33.393 21.0678L33.0209 20.4166L32.6488 19.7654L16.6071 28.9321L16.9792 29.5833ZM38.0418 22.3583L38.3123 21.6587L33.2914 19.7171L33.0209 20.4166L32.7504 21.1161L37.7712 23.0578L38.0418 22.3583ZM33.0209 20.4166L33.7622 20.5308L34.5747 15.2558L33.8334 15.1416L33.0922 15.0274L32.2797 20.3024L33.0209 20.4166ZM33.0209 20.4166L33.393 21.0678L39.9555 17.3178L39.5834 16.6666L39.2113 16.0154L32.6488 19.7654L33.0209 20.4166ZM11.9584 22.3583L12.2289 23.0578L17.2498 21.1161L16.9792 20.4166L16.7087 19.7171L11.6879 21.6587L11.9584 22.3583ZM16.9792 20.4166L17.7205 20.3024L16.908 15.0274L16.1667 15.1416L15.4255 15.2558L16.238 20.5308L16.9792 20.4166ZM16.9792 20.4166L17.3514 19.7654L10.7889 16.0154L10.4167 16.6666L10.0446 17.3178L16.6071 21.0678L16.9792 20.4166ZM16.9792 20.4166L16.6071 21.0678L32.6488 30.2344L33.0209 29.5833L33.393 28.9321L17.3514 19.7654L16.9792 20.4166ZM38.0418 27.6416L37.7712 26.9421L32.7504 28.8837L33.0209 29.5833L33.2914 30.2828L38.3123 28.3411L38.0418 27.6416ZM33.0209 29.5833L32.2797 29.6974L33.0922 34.9724L33.8334 34.8583L34.5747 34.7441L33.7622 29.4691L33.0209 29.5833ZM33.0209 29.5833L32.6488 30.2344L39.2113 33.9844L39.5834 33.3333L39.9555 32.6821L33.393 28.9321L33.0209 29.5833Z" fill="black"/>
</svg>
