<svg width="18" height="19" viewBox="0 0 18 19" fill="none" xmlns="http://www.w3.org/2000/svg">
<g filter="url(#filter0_i_513_259)">
<circle cx="9.15215" cy="9.5665" r="8" transform="rotate(-5 9.15215 9.5665)" fill="#FF7B7D"/>
</g>
<path d="M5.97553 11.5667C5.68264 11.8596 5.68264 12.3345 5.97553 12.6274C6.26842 12.9203 6.7433 12.9203 7.03619 12.6274L6.50586 12.0971L5.97553 11.5667ZM9.46119 10.2024C9.75408 9.90951 9.75408 9.43463 9.46119 9.14174C9.1683 8.84885 8.69342 8.84885 8.40053 9.14174L8.93086 9.67207L9.46119 10.2024ZM8.40053 9.14174C8.10764 9.43463 8.10764 9.90951 8.40053 10.2024C8.69342 10.4953 9.1683 10.4953 9.46119 10.2024L8.93086 9.67207L8.40053 9.14174ZM11.8862 7.7774C12.1791 7.48451 12.1791 7.00963 11.8862 6.71674C11.5933 6.42385 11.1184 6.42385 10.8255 6.71674L11.3559 7.24707L11.8862 7.7774ZM9.46119 9.14174C9.1683 8.84885 8.69342 8.84885 8.40053 9.14174C8.10764 9.43463 8.10764 9.90951 8.40053 10.2024L8.93086 9.67207L9.46119 9.14174ZM10.8255 12.6274C11.1184 12.9203 11.5933 12.9203 11.8862 12.6274C12.1791 12.3345 12.1791 11.8596 11.8862 11.5667L11.3559 12.0971L10.8255 12.6274ZM8.40053 10.2024C8.69342 10.4953 9.1683 10.4953 9.46119 10.2024C9.75408 9.90951 9.75408 9.43463 9.46119 9.14174L8.93086 9.67207L8.40053 10.2024ZM7.03619 6.71674C6.7433 6.42385 6.26842 6.42385 5.97553 6.71674C5.68264 7.00963 5.68264 7.48451 5.97553 7.7774L6.50586 7.24707L7.03619 6.71674ZM6.50586 12.0971L7.03619 12.6274L9.46119 10.2024L8.93086 9.67207L8.40053 9.14174L5.97553 11.5667L6.50586 12.0971ZM8.93086 9.67207L9.46119 10.2024L11.8862 7.7774L11.3559 7.24707L10.8255 6.71674L8.40053 9.14174L8.93086 9.67207ZM8.93086 9.67207L8.40053 10.2024L10.8255 12.6274L11.3559 12.0971L11.8862 11.5667L9.46119 9.14174L8.93086 9.67207ZM8.93086 9.67207L9.46119 9.14174L7.03619 6.71674L6.50586 7.24707L5.97553 7.7774L8.40053 10.2024L8.93086 9.67207Z" fill="white"/>
<defs>
<filter id="filter0_i_513_259" x="1.15186" y="1.56592" width="16.001" height="18.001" filterUnits="userSpaceOnUse" color-interpolation-filters="sRGB">
<feFlood flood-opacity="0" result="BackgroundImageFix"/>
<feBlend mode="normal" in="SourceGraphic" in2="BackgroundImageFix" result="shape"/>
<feColorMatrix in="SourceAlpha" type="matrix" values="0 0 0 0 0 0 0 0 0 0 0 0 0 0 0 0 0 0 127 0" result="hardAlpha"/>
<feOffset dy="2"/>
<feGaussianBlur stdDeviation="1"/>
<feComposite in2="hardAlpha" operator="arithmetic" k2="-1" k3="1"/>
<feColorMatrix type="matrix" values="0 0 0 0 1 0 0 0 0 1 0 0 0 0 1 0 0 0 0.25 0"/>
<feBlend mode="normal" in2="shape" result="effect1_innerShadow_513_259"/>
</filter>
</defs>
</svg>
