<svg width="50" height="50" viewBox="0 0 50 50" fill="none" xmlns="http://www.w3.org/2000/svg">
<path fill-rule="evenodd" clip-rule="evenodd" d="M25 15.2772C25 17.9615 22.8239 20.1376 20.1396 20.1376C17.4553 20.1376 15.2792 17.9615 15.2792 15.2772C15.2792 12.5928 17.4553 10.4167 20.1396 10.4167C22.8239 10.4167 25 12.5928 25 15.2772Z" stroke="black" stroke-width="1.5" stroke-linecap="round" stroke-linejoin="round"/>
<path fill-rule="evenodd" clip-rule="evenodd" d="M29.8604 32.7771C29.8604 36.5271 25.5083 39.5833 20.1375 39.5833C14.7666 39.5833 10.4166 36.5354 10.4166 32.7771C10.4166 29.0187 14.7687 25.9729 20.1395 25.9729C25.5104 25.9729 29.8604 29.0187 29.8604 32.7771Z" stroke="black" stroke-width="1.5" stroke-linecap="round" stroke-linejoin="round"/>
<path fill-rule="evenodd" clip-rule="evenodd" d="M35.2895 19.8146C35.2895 21.4254 33.9837 22.7313 32.3728 22.7313C30.762 22.7313 29.4562 21.4254 29.4562 19.8146C29.4562 18.2038 30.762 16.8979 32.3728 16.8979C33.1464 16.8979 33.8883 17.2052 34.4352 17.7522C34.9822 18.2992 35.2895 19.0411 35.2895 19.8146Z" stroke="black" stroke-width="1.5" stroke-linecap="round" stroke-linejoin="round"/>
<path d="M33.75 37.6396C36.6953 37.8814 39.2909 35.7178 39.5833 32.7771C39.2898 29.8372 36.6946 27.6748 33.75 27.9167" stroke="black" stroke-width="1.5" stroke-linecap="round" stroke-linejoin="round"/>
</svg>
