<svg width="75" height="63" viewBox="0 0 75 63" fill="none" xmlns="http://www.w3.org/2000/svg">
<path d="M73.6071 61.9389C71.7901 59.8837 69.1518 60.16 65.4333 61.2234M73.6071 61.9389C71.6238 59.8338 71.275 56.5019 73.2922 53.6542M73.6071 61.9389C73.2768 62.0898 70.6172 57.9219 66.2003 54.0286M62.439 50.5009L58.4592 46.8513M54.8189 43.7489L51.5062 40.829M48.1355 37.8339L44.2282 34.4395M41.0364 31.8859L37.2626 28.6375M34.1464 25.9559L30.3359 22.9018M26.7851 20.0498L23.2781 17.0932M20.1715 14.5745L16.3485 11.7997M12.8094 9.31229C12.0004 8.62284 10.0936 7.06863 8.93801 6.36739M5.92809 4.18873L1 1.08453" stroke="black" stroke-width="2" stroke-miterlimit="1.5" stroke-linecap="round" stroke-linejoin="round"/>
</svg>
